Jump_normalized_pl07_filtered_grf
version=1
nRows=20
nColumns=37
inDegrees=yes
endheader
time		1_ground_force_vx		1_ground_force_vy		1_ground_force_vz		1_ground_force_px		1_ground_force_py		1_ground_force_pz		1_ground_torque_x		1_ground_torque_y		1_ground_torque_z		2_ground_force_vx		2_ground_force_vy		2_ground_force_vz		2_ground_force_px		2_ground_force_py		2_ground_force_pz		2_ground_torque_x		2_ground_torque_y		2_ground_torque_z		3_ground_force_vx		3_ground_force_vy		3_ground_force_vz		3_ground_force_px		3_ground_force_py		3_ground_force_pz		3_ground_torque_x		3_ground_torque_y		3_ground_torque_z		4_ground_force_vx		4_ground_force_vy		4_ground_force_vz		4_ground_force_px		4_ground_force_py		4_ground_force_pz		4_ground_torque_x		4_ground_torque_y		4_ground_torque_z		
0.112833		-0.000000		0.000000		0.000000		0.137786		0.000000		0.235046		0.000000		0.000000		-0.000000		0.000000		0.000000		0.000000		-0.149475		0.000000		0.264626		0.000000		-0.000000		0.000000		22.220480		10.477281		17.026527		0.374787		1.309972		1.918199		-0.584667		-0.276537		-0.449381		-12.760027		218.403379		446.373469		-0.265556		1.309828		1.927383		-0.595646		10.195202		20.836986		
0.114475		-0.000000		0.000000		0.000000		0.137786		0.000000		0.235046		0.000000		0.000000		-0.000000		0.000000		0.000000		0.000000		-0.149475		0.000000		0.264626		0.000000		-0.000000		0.000000		22.320386		6.775305		10.954591		0.374804		1.310017		1.918165		-0.365513		-0.111098		-0.179635		-12.809510		213.690427		442.991684		-0.265568		1.309848		1.927265		-0.598109		9.977767		20.684445		
0.116116		-0.000000		0.000000		0.000000		0.137786		0.000000		0.235046		0.000000		0.000000		-0.000000		0.000000		0.000000		0.000000		-0.149475		0.000000		0.264626		0.000000		-0.000000		0.000000		22.387319		3.895961		6.022986		0.374818		1.310058		1.918125		-0.193234		-0.033849		-0.052378		-12.900683		209.101098		439.445021		-0.265581		1.309865		1.927146		-0.602408		9.764141		20.520232		
0.117758		-0.000000		0.000000		0.000000		0.137786		0.000000		0.235046		0.000000		0.000000		-0.000000		0.000000		0.000000		0.000000		-0.149475		0.000000		0.264626		0.000000		-0.000000		0.000000		22.414235		1.777756		2.211112		0.374829		1.310096		1.918083		-0.107692		-0.008625		-0.010779		-13.016799		204.644858		435.728162		-0.265596		1.309881		1.927026		-0.607774		9.555186		20.344822		
0.119399		-0.000000		0.000000		0.000000		0.137786		0.000000		0.235046		0.000000		0.000000		-0.000000		0.000000		0.000000		0.000000		-0.149475		0.000000		0.264626		0.000000		-0.000000		0.000000		22.397800		0.339455		-0.540320		0.374836		1.310125		1.918033		-0.087834		-0.001334		0.002114		-13.158891		200.309497		431.838578		-0.265613		1.309893		1.926909		-0.614273		9.350681		20.158727		
0.121040		-0.000000		0.000000		0.000000		0.137786		0.000000		0.235046		0.000000		0.000000		-0.000000		-0.000000		0.000000		0.000000		-0.149475		0.000000		0.264626		0.000000		-0.000000		0.000000		22.338666		-0.514652		-2.326025		0.374839		1.310149		1.917978		-0.093896		0.002164		0.009781		-13.306617		196.100036		427.759631		-0.265630		1.309903		1.926795		-0.620963		9.151153		19.961718		
0.122682		-0.000000		0.000000		0.000000		0.137786		0.000000		0.235046		0.000000		0.000000		-0.000000		-0.000000		0.000000		0.000000		-0.149475		0.000000		0.264626		0.000000		-0.000000		0.000000		22.241598		-0.894825		-3.276100		0.374840		1.310169		1.917919		-0.100917		0.004061		0.014867		-13.445676		192.014049		423.473138		-0.265649		1.309911		1.926684		-0.627190		8.956731		19.753423		
0.124323		-0.000000		0.000000		0.000000		0.137786		0.000000		0.235046		0.000000		0.000000		-0.000000		-0.000000		0.000000		0.000000		-0.149475		0.000000		0.264626		0.000000		-0.000000		0.000000		22.116120		-0.926958		-3.566127		0.374835		1.310182		1.917852		-0.101536		0.004256		0.016372		-13.576287		188.032082		418.970883		-0.265668		1.309917		1.926579		-0.632973		8.766709		19.533877		
0.125965		0.000000		0.000000		-0.000000		0.137786		0.000000		0.235046		0.000000		-0.000000		-0.000000		-0.000000		0.000000		0.000000		-0.149475		0.000000		0.264626		0.000000		-0.000000		0.000000		21.973725		-0.720572		-3.360852		0.374828		1.310191		1.917781		-0.097308		0.003192		0.014883		-13.685610		184.152902		414.234455		-0.265687		1.309920		1.926478		-0.637722		8.581151		19.302482		
0.127606		0.000000		-0.000000		-0.000000		0.137786		0.000000		0.235046		-0.000000		-0.000000		0.000000		-0.000000		-0.000000		-0.000000		-0.149475		0.000000		0.264626		-0.000000		0.000000		-0.000000		21.827890		-0.371859		-2.816136		0.374819		1.310197		1.917707		-0.092473		0.001576		0.011932		-13.773488		180.369083		409.245767		-0.265704		1.309921		1.926381		-0.641429		8.399753		19.058494		
0.129247		0.000000		-0.000000		-0.000000		0.137786		0.000000		0.235046		-0.000000		-0.000000		0.000000		-0.000000		-0.000000		-0.000000		-0.149475		0.000000		0.264626		-0.000000		0.000000		-0.000000		21.692684		0.034887		-2.086670		0.374809		1.310200		1.917629		-0.090615		-0.000146		0.008716		-13.843109		176.671277		403.998368		-0.265719		1.309920		1.926292		-0.644241		8.222057		18.801568		
0.130889		0.000000		-0.000000		-0.000000		0.137786		0.000000		0.235046		-0.000000		-0.000000		0.000000		-0.000000		-0.000000		-0.000000		-0.149475		0.000000		0.264626		-0.000000		0.000000		-0.000000		21.581173		0.438154		-1.295957		0.374798		1.310205		1.917550		-0.093014		-0.001890		0.005583		-13.896676		173.058337		398.486743		-0.265733		1.309917		1.926207		-0.646250		8.047902		18.531219		
0.132530		0.000000		-0.000000		-0.000000		0.137786		0.000000		0.235046		-0.000000		-0.000000		0.000000		-0.000000		-0.000000		-0.000000		-0.149475		0.000000		0.264626		-0.000000		0.000000		-0.000000		21.504389		0.796105		-0.540500		0.374786		1.310208		1.917470		-0.098800		-0.003658		0.002482		-13.940171		169.530141		392.708072		-0.265745		1.309914		1.926125		-0.647720		7.877101		18.246908		
0.134172		0.000000		-0.000000		-0.000000		0.137786		0.000000		0.235046		-0.000000		-0.000000		0.000000		-0.000000		-0.000000		-0.000000		-0.149475		0.000000		0.264626		-0.000000		0.000000		-0.000000		21.470708		1.083709		0.107769		0.374774		1.310217		1.917390		-0.105798		-0.005341		-0.000535		-13.973460		166.093121		386.660817		-0.265753		1.309908		1.926049		-0.648618		7.709688		17.947967		
0.135813		0.000000		-0.000000		-0.000000		0.137786		0.000000		0.235046		-0.000000		-0.000000		0.000000		-0.000000		-0.000000		-0.000000		-0.149475		0.000000		0.264626		-0.000000		0.000000		-0.000000		21.482938		1.294177		0.610916		0.374762		1.310227		1.917311		-0.111752		-0.006733		-0.003180		-14.000656		162.752061		380.357169		-0.265757		1.309902		1.925977		-0.649106		7.545607		17.634340		
0.137455		0.000000		-0.000000		-0.000000		0.137786		0.000000		0.235046		-0.000000		-0.000000		0.000000		0.000000		-0.000000		-0.000000		-0.149475		0.000000		0.264626		-0.000000		0.000000		-0.000000		21.540579		1.431090		0.952431		0.374751		1.310239		1.917232		-0.115246		-0.007657		-0.005095		-14.018146		159.517381		373.805953		-0.265759		1.309895		1.925906		-0.648984		7.385020		17.305727		
0.139096		0.000000		-0.000000		-0.000000		0.137786		0.000000		0.235046		-0.000000		-0.000000		0.000000		0.000000		-0.000000		-0.000000		-0.149475		0.000000		0.264626		-0.000000		0.000000		-0.000000		21.640023		1.504805		1.133191		0.374740		1.310254		1.917153		-0.115827		-0.008054		-0.006065		-14.021141		156.400981		367.014244		-0.265756		1.309889		1.925840		-0.647992		7.228126		16.961691		
0.140737		0.000000		-0.000000		-0.000000		0.137786		0.000000		0.235046		-0.000000		-0.000000		0.000000		0.000000		-0.000000		-0.000000		-0.149475		0.000000		0.264626		-0.000000		0.000000		-0.000000		21.773246		1.531737		1.173020		0.374729		1.310270		1.917073		-0.113975		-0.008018		-0.006140		-14.001383		153.413202		359.995361		-0.265750		1.309883		1.925775		-0.645717		7.075126		16.602305		
0.142379		-0.000000		-0.000000		0.000000		0.137786		0.000000		0.235046		-0.000000		0.000000		0.000000		0.000000		0.000000		-0.000000		-0.149475		0.000000		0.264626		-0.000000		-0.000000		-0.000000		21.930192		1.528490		1.099882		0.374718		1.310285		1.916990		-0.110596		-0.007708		-0.005547		-13.946444		150.560713		352.761888		-0.265741		1.309877		1.925712		-0.641567		6.926128		16.227834		
0.144020		-0.000000		0.000000		0.000000		0.137786		0.000000		0.235046		0.000000		0.000000		-0.000000		0.000000		0.000000		0.000000		-0.149475		0.000000		0.264626		0.000000		-0.000000		0.000000		22.099698		1.509388		0.945730		0.374707		1.310296		1.916901		-0.106636		-0.007284		-0.004563		-13.854290		147.843474		345.323120		-0.265728		1.309872		1.925649		-0.635442		6.781002		15.838622		
